<?xml version="1.0" standalone="no"?>
<!DOCTYPE svg PUBLIC "-//W3C//DTD SVG 20010904//EN"
 "http://www.w3.org/TR/2001/REC-SVG-20010904/DTD/svg10.dtd">
<svg version="1.0" xmlns="http://www.w3.org/2000/svg"
 width="700.000000pt" height="700.000000pt" viewBox="0 0 700.000000 700.000000"
 preserveAspectRatio="xMidYMid meet">
<metadata>
Created by potrace 1.14, written by Peter Selinger 2001-2017
</metadata>
<g transform="translate(0.000000,700.000000) scale(0.100000,-0.100000)"
fill="#000000" stroke="none">
<path d="M260 6986 c-77 -22 -99 -34 -149 -81 -30 -28 -60 -69 -77 -108 l-29
-62 0 -3235 0 -3235 29 -62 c34 -75 95 -134 174 -171 l57 -27 3213 -3 c3532
-2 3276 -7 3371 58 59 41 107 104 131 174 20 54 20 105 20 3259 0 2892 -2
3209 -16 3257 -30 101 -91 171 -189 217 l-60 28 -3215 2 c-2600 1 -3224 -1
-3260 -11z"/>
</g>
</svg>
